<svg xmlns="http://www.w3.org/2000/svg" width="1200" height="900" viewBox="0 0 1200 900">
<rect width="1200" height="900" fill="#f7f3ea"/>
<style>.wall{fill:none;stroke:#252525;stroke-width:10}.room{stroke:#3b3b3b;stroke-width:2}.label{font:700 15px Arial;fill:#202020}.small{font:12px Arial;fill:#333}.dim{font:13px Arial;fill:#202020}.door{stroke:#c55b22;stroke-width:8}.window{stroke:#2c7da0;stroke-width:7}.route{fill:none;stroke:#7a6f5d;stroke-width:3;stroke-dasharray:8 7}.stair{fill:#dfbd83;stroke:#80521f;stroke-width:3}.landing{fill:#d3a65e;stroke:#80521f;stroke-width:3}</style>
<text x="600" y="30" text-anchor="middle" class="label">NORTH ↑ · measured ground-floor production lock v0.2 · 13.00 × 22.00 m</text>
<g transform="translate(360 55)">
 <rect x="0" y="0" width="442" height="748" class="wall"/>
 <rect x="12" y="12" width="272" height="323" fill="#ead9b8" class="room"/><text x="125" y="150" text-anchor="middle" class="label">GF-01 COMMON ROOM</text><text x="125" y="172" text-anchor="middle" class="small">8.0 × 9.5 m · 76.0 m²</text>
 <rect x="170" y="12" width="60" height="78" fill="#aaa095" class="room"/><text x="200" y="106" text-anchor="middle" class="small">HEARTH / CHIMNEY</text>
 <rect x="170" y="12" width="44" height="34" fill="#7e756b" class="room"/>
 <rect x="116" y="125" width="41" height="122" fill="#bd9b6a" class="room"/><text x="137" y="190" text-anchor="middle" class="small" transform="rotate(-90 137 190)">TABLE 3.6 × 1.2</text>
 <rect x="388" y="54" width="42" height="172" class="stair"/>
 <g stroke="#80521f" stroke-width="2"><line x1="388" y1="67" x2="430" y2="67"/><line x1="388" y1="80" x2="430" y2="80"/><line x1="388" y1="93" x2="430" y2="93"/><line x1="388" y1="106" x2="430" y2="106"/><line x1="388" y1="119" x2="430" y2="119"/><line x1="388" y1="132" x2="430" y2="132"/><line x1="388" y1="145" x2="430" y2="145"/><line x1="388" y1="158" x2="430" y2="158"/><line x1="388" y1="171" x2="430" y2="171"/><line x1="388" y1="184" x2="430" y2="184"/><line x1="388" y1="197" x2="430" y2="197"/><line x1="388" y1="210" x2="430" y2="210"/></g>
 <rect x="388" y="12" width="42" height="42" class="landing"/><text x="409" y="37" text-anchor="middle" class="small">TURN</text>
 <rect x="272" y="12" width="116" height="42" class="stair"/>
 <g stroke="#80521f" stroke-width="2"><line x1="285" y1="12" x2="285" y2="54"/><line x1="298" y1="12" x2="298" y2="54"/><line x1="311" y1="12" x2="311" y2="54"/><line x1="324" y1="12" x2="324" y2="54"/><line x1="337" y1="12" x2="337" y2="54"/><line x1="350" y1="12" x2="350" y2="54"/><line x1="363" y1="12" x2="363" y2="54"/><line x1="376" y1="12" x2="376" y2="54"/></g>
 <rect x="230" y="12" width="42" height="42" class="landing"/><text x="251" y="37" text-anchor="middle" class="small">LAND</text>
 <path d="M409 215 V70" fill="none" stroke="#b8322b" stroke-width="6" marker-end="url(#arrow)"/><text x="379" y="150" class="small" fill="#8b201c" transform="rotate(-90 379 150)">LOWER RUN · RISES NORTH</text>
 <path d="M376 33 H285" fill="none" stroke="#b8322b" stroke-width="6" marker-end="url(#arrow)"/><text x="331" y="72" text-anchor="middle" class="small" fill="#8b201c">UPPER RUN · RISES WEST</text>
 <path d="M245 48 H210" fill="none" stroke="#5b3da0" stroke-width="5" marker-end="url(#arrowPurple)"/>
 <rect x="294" y="221" width="136" height="102" fill="#e2d6c2" class="room"/><text x="362" y="263" text-anchor="middle" class="label">GF-04 ENTRY</text><text x="362" y="283" text-anchor="middle" class="small">4 × 3 m</text>
 <rect x="12" y="340" width="170" height="204" fill="#d9c4a0" class="room"/><text x="97" y="430" text-anchor="middle" class="label">GF-02 KITCHEN</text><text x="97" y="452" text-anchor="middle" class="small">5 × 6 m · 30 m²</text>
 <rect x="188" y="335" width="102" height="170" fill="#efe1bc" class="room"/><text x="239" y="412" text-anchor="middle" class="label">GF-06</text><text x="239" y="432" text-anchor="middle" class="small">PANTRY · 15 m²</text>
 <rect x="297" y="335" width="122" height="170" fill="#d9dfc2" class="room"/><text x="358" y="412" text-anchor="middle" class="label">GF-07</text><text x="358" y="432" text-anchor="middle" class="small">WORK/STORAGE · 18 m²</text>
 <rect x="12" y="551" width="153" height="136" fill="#c8d8d5" class="room"/><text x="88" y="615" text-anchor="middle" class="label">GF-03 WASH</text><text x="88" y="636" text-anchor="middle" class="small">4.5 × 4 m · 18 m²</text>
 <rect x="165" y="551" width="204" height="136" fill="#d0c9ba" class="room"/><text x="267" y="615" text-anchor="middle" class="label">GF-08 GENERAL STORAGE</text><text x="267" y="636" text-anchor="middle" class="small">6 × 4 m · 24 m²</text>
 <path d="M12 694 H430 V736 H12 Z M369 551 H430 V694 H369 Z" fill="#c9a67b" class="room"/><text x="221" y="720" text-anchor="middle" class="label">GF-09 REPAIR / SALVAGE + DRY FIREWOOD · ~25 m²</text>
 <line x1="442" y1="249" x2="442" y2="297" class="door"/><text x="455" y="278" class="small">D-01 1.40</text><line x1="0" y1="365" x2="0" y2="401" class="door"/>
 <line x1="442" y1="139" x2="442" y2="171" class="window"/><text x="451" y="154" class="small">HIGH STAIR LIGHT</text><line x1="367" y1="0" x2="396" y2="0" class="window"/>
 <line x1="0" y1="435" x2="0" y2="468" class="window"/><line x1="0" y1="482" x2="0" y2="515" class="window"/><line x1="0" y1="624" x2="0" y2="646" class="window"/><line x1="442" y1="410" x2="442" y2="442" class="window"/><line x1="442" y1="572" x2="442" y2="604" class="window"/><line x1="143" y1="0" x2="175" y2="0" class="window"/><line x1="102" y1="748" x2="134" y2="748" class="window"/><line x1="306" y1="748" x2="338" y2="748" class="window"/>
 <text x="221" y="774" text-anchor="middle" class="dim">SOUTH · exterior width 13.00 m</text><text x="-35" y="374" text-anchor="middle" class="dim" transform="rotate(-90 -35 374)">WEST / SERVICE · 22.00 m</text><text x="477" y="374" text-anchor="middle" class="dim" transform="rotate(90 477 374)">EAST / MAIN + PORCH</text>
</g>
<defs><marker id="arrow" markerWidth="7" markerHeight="7" refX="6" refY="3.5" orient="auto"><polygon points="0 0, 7 3.5, 0 7" fill="#b8322b"/></marker><marker id="arrowPurple" markerWidth="7" markerHeight="7" refX="6" refY="3.5" orient="auto"><polygon points="0 0, 7 3.5, 0 7" fill="#5b3da0"/></marker></defs>
<g transform="translate(30 115)"><rect width="285" height="270" rx="8" fill="#fffaf1" stroke="#8c806d"/><text x="15" y="28" class="label">L-SHAPED STAIR LOCK</text><text x="15" y="58" class="small">• lower run: east wall, S → N</text><text x="15" y="82" class="small">• turn: northeast corner</text><text x="15" y="106" class="small">• upper run: north wall, E → W</text><text x="15" y="130" class="small">• landing: west end; opens west</text><text x="15" y="154" class="small">• entry directly south; usable vestibule</text><text x="15" y="178" class="small">• hearth/chimney directly adjacent</text><text x="15" y="202" class="small">• corridor passes beside chimney</text><text x="15" y="226" class="small">• full second floor; no mezzanine</text><text x="15" y="250" class="small">• Frieren retains direct terrace access</text></g>
<g transform="translate(850 115)"><rect width="320" height="250" rx="8" fill="#fffaf1" stroke="#8c806d"/><text x="15" y="28" class="label">CAL-02A CAMERA A</text><text x="15" y="58" class="small">east main-door threshold / porch side</text><text x="15" y="82" class="small">X 13.8, Y 13.25 · eye ≈1.55 m</text><text x="15" y="106" class="small">look northwest · 28–35 mm family</text><text x="15" y="142" class="small">Must read: entry + complete L stair,</text><text x="15" y="166" class="small">hearth/chimney adjacency, table,</text><text x="15" y="190" class="small">kitchen-side relationship and</text><text x="15" y="214" class="small">continuous second floor.</text></g>
<text x="600" y="870" text-anchor="middle" class="small">Spatial Bible v0.5 + measured plan v0.2 supersede the straight-run stair in v0.4/v0.1.</text>
</svg>